<svg width="80" height="80" viewBox="0 0 80 80" fill="none" xmlns="http://www.w3.org/2000/svg">
<circle cx="40" cy="40" r="40" fill="#1B70BE" fill-opacity="0.2"/>
<g clip-path="url(#clip0)">
<path d="M40 56.7578C25.9172 56.7578 14.7498 41.5353 14.2857 40.8866C13.9048 40.357 13.9048 39.6429 14.2857 39.1133C14.7498 38.4647 25.9172 23.2422 40 23.2422C54.0829 23.2422 65.2502 38.4647 65.7144 39.1134C66.0953 39.643 66.0953 40.3571 65.7144 40.8867C65.2502 41.5353 54.0829 56.7578 40 56.7578Z" fill="url(#paint0_linear)"/>
<path d="M40 50.6641C34.1204 50.6641 29.3359 45.8796 29.3359 40C29.3359 34.1204 34.1204 29.3359 40 29.3359C45.8796 29.3359 50.6641 34.1204 50.6641 40C50.6641 45.8796 45.8796 50.6641 40 50.6641Z" fill="url(#paint1_linear)"/>
<path d="M40 44.5703C37.4798 44.5703 35.4297 42.5202 35.4297 40C35.4297 37.4798 37.4798 35.4297 40 35.4297C42.5202 35.4297 44.5703 37.4798 44.5703 40C44.5703 42.5202 42.5202 44.5703 40 44.5703Z" fill="url(#paint2_linear)"/>
<path d="M40 14C39.1579 14 38.4766 14.6814 38.4766 15.5234V18.5703C38.4766 19.4124 39.1579 20.0938 40 20.0938C40.8421 20.0938 41.5234 19.4124 41.5234 18.5703V15.5234C41.5234 14.6814 40.8421 14 40 14ZM40 59.9062C39.1579 59.9062 38.4766 60.5876 38.4766 61.4297V64.4766C38.4766 65.3186 39.1579 66 40 66C40.8421 66 41.5234 65.3186 41.5234 64.4766V61.4297C41.5234 60.5876 40.8421 59.9062 40 59.9062ZM29.1321 18.1288C28.7096 17.3998 27.7738 17.1499 27.0508 17.5709C26.3218 17.992 26.0718 18.9232 26.4929 19.6523L28.0163 22.2915C28.4421 23.0265 29.3768 23.2657 30.0977 22.8493C30.8267 22.4283 31.0766 21.497 30.6555 20.768L29.1321 18.1288ZM51.9837 57.7084C51.5596 56.9794 50.6254 56.7281 49.9023 57.1506C49.1733 57.5716 48.9234 58.5029 49.3445 59.2319L50.8679 61.8711C51.2936 62.6061 52.2283 62.8454 52.9492 62.429C53.6782 62.0079 53.9282 61.0767 53.5071 60.3476L51.9837 57.7084ZM49.9023 22.8494C50.6244 23.2665 51.5586 23.0254 51.9837 22.2916L53.5071 19.6524C53.9282 18.9233 53.6782 17.992 52.9492 17.571C52.2202 17.1501 51.2889 17.3999 50.8679 18.1289L49.3445 20.7681C48.9234 21.497 49.1733 22.4284 49.9023 22.8494ZM30.0977 57.1506C29.3672 56.7281 28.4388 56.9794 28.0163 57.7084L26.4929 60.3476C26.0718 61.0767 26.3218 62.008 27.0508 62.429C27.7728 62.846 28.7071 62.6049 29.1321 61.8711L30.6555 59.2319C31.0766 58.503 30.8267 57.5716 30.0977 57.1506Z" fill="url(#paint3_linear)"/>
</g>
<defs>
<linearGradient id="paint0_linear" x1="40" y1="56.7578" x2="40" y2="23.2422" gradientUnits="userSpaceOnUse">
<stop stop-color="#5558FF"/>
<stop offset="1" stop-color="#00C0FF"/>
</linearGradient>
<linearGradient id="paint1_linear" x1="40" y1="50.6641" x2="40" y2="29.3359" gradientUnits="userSpaceOnUse">
<stop stop-color="#ADDCFF"/>
<stop offset="0.5028" stop-color="#EAF6FF"/>
<stop offset="1" stop-color="#EAF6FF"/>
</linearGradient>
<linearGradient id="paint2_linear" x1="40" y1="44.5703" x2="40" y2="35.4297" gradientUnits="userSpaceOnUse">
<stop stop-color="#5558FF"/>
<stop offset="1" stop-color="#00C0FF"/>
</linearGradient>
<linearGradient id="paint3_linear" x1="40" y1="66" x2="40" y2="14" gradientUnits="userSpaceOnUse">
<stop stop-color="#5FAAE1"/>
<stop offset="0.5028" stop-color="#EAF6FF"/>
<stop offset="1" stop-color="#EAF6FF"/>
</linearGradient>
<clipPath id="clip0">
<rect width="52" height="52" fill="white" transform="translate(14 14)"/>
</clipPath>
</defs>
</svg>
